<svg width="80" height="80" viewBox="0 0 80 80" fill="none" xmlns="http://www.w3.org/2000/svg">
<mask id="mask0_2002_222" style="mask-type:alpha" maskUnits="userSpaceOnUse" x="0" y="0" width="80" height="80">
<rect width="80" height="80" fill="#D9D9D9"/>
</mask>
<g mask="url(#mask0_2002_222)">
<path d="M14.5837 70L9.91699 65.3333L44.0837 31.1667C43.0837 28.8333 42.9448 26.1944 43.667 23.25C44.3892 20.3056 45.9725 17.6667 48.417 15.3333C51.3614 12.3889 54.6392 10.6667 58.2503 10.1667C61.8614 9.66667 64.8059 10.5556 67.0837 12.8333C69.3614 15.1111 70.2503 18.0556 69.7503 21.6667C69.2503 25.2778 67.5281 28.5556 64.5837 31.5C62.2503 33.9444 59.6114 35.5278 56.667 36.25C53.7225 36.9722 51.0837 36.8333 48.7503 35.8333L44.5837 40L69.917 65.3333L65.2503 70L39.917 44.8333L14.5837 70ZM24.417 41.5L14.417 31.5C11.417 28.5 9.91699 24.9167 9.91699 20.75C9.91699 16.5833 11.417 13 14.417 10L35.0837 30.8333L24.417 41.5Z" fill="#F40000"/>
</g>
</svg>
