<svg width="80" height="80" viewBox="0 0 80 80" fill="none" xmlns="http://www.w3.org/2000/svg">
<mask id="mask0_2002_126" style="mask-type:alpha" maskUnits="userSpaceOnUse" x="0" y="0" width="80" height="80">
<rect width="80" height="80" fill="#D9D9D9"/>
</mask>
<g mask="url(#mask0_2002_126)">
<path d="M19.9999 63.3327C17.2221 63.3327 14.861 62.3605 12.9166 60.416C10.9721 58.4716 9.99992 56.1105 9.99992 53.3327H3.33325V23.3327C3.33325 21.4993 3.98603 19.9299 5.29159 18.6243C6.59714 17.3188 8.16659 16.666 9.99992 16.666H56.6666L76.6666 36.666V53.3327H69.9999C69.9999 56.1105 69.0277 58.4716 67.0833 60.416C65.1388 62.3605 62.7777 63.3327 59.9999 63.3327C57.2221 63.3327 54.861 62.3605 52.9166 60.416C50.9721 58.4716 49.9999 56.1105 49.9999 53.3327H29.9999C29.9999 56.1105 29.0277 58.4716 27.0833 60.416C25.1388 62.3605 22.7777 63.3327 19.9999 63.3327ZM49.9999 33.3327H63.3333L53.3333 23.3327H49.9999V33.3327ZM29.9999 33.3327H43.3333V23.3327H29.9999V33.3327ZM9.99992 33.3327H23.3333V23.3327H9.99992V33.3327ZM19.9999 57.4994C21.1666 57.4994 22.1527 57.0966 22.9583 56.291C23.7638 55.4855 24.1666 54.4994 24.1666 53.3327C24.1666 52.166 23.7638 51.1799 22.9583 50.3744C22.1527 49.5688 21.1666 49.166 19.9999 49.166C18.8333 49.166 17.8471 49.5688 17.0416 50.3744C16.236 51.1799 15.8333 52.166 15.8333 53.3327C15.8333 54.4994 16.236 55.4855 17.0416 56.291C17.8471 57.0966 18.8333 57.4994 19.9999 57.4994ZM59.9999 57.4994C61.1666 57.4994 62.1527 57.0966 62.9583 56.291C63.7638 55.4855 64.1666 54.4994 64.1666 53.3327C64.1666 52.166 63.7638 51.1799 62.9583 50.3744C62.1527 49.5688 61.1666 49.166 59.9999 49.166C58.8333 49.166 57.8471 49.5688 57.0416 50.3744C56.236 51.1799 55.8333 52.166 55.8333 53.3327C55.8333 54.4994 56.236 55.4855 57.0416 56.291C57.8471 57.0966 58.8333 57.4994 59.9999 57.4994ZM9.99992 46.666H12.6666C13.611 45.666 14.6944 44.8605 15.9166 44.2494C17.1388 43.6382 18.4999 43.3327 19.9999 43.3327C21.4999 43.3327 22.861 43.6382 24.0833 44.2494C25.3055 44.8605 26.3888 45.666 27.3333 46.666H52.6666C53.611 45.666 54.6944 44.8605 55.9166 44.2494C57.1388 43.6382 58.4999 43.3327 59.9999 43.3327C61.4999 43.3327 62.861 43.6382 64.0833 44.2494C65.3055 44.8605 66.3888 45.666 67.3333 46.666H69.9999V39.9993H9.99992V46.666Z" fill="#F40000"/>
</g>
</svg>
