<svg width="81" height="80" viewBox="0 0 81 80" fill="none" xmlns="http://www.w3.org/2000/svg">
<mask id="mask0_2002_167" style="mask-type:alpha" maskUnits="userSpaceOnUse" x="0" y="0" width="81" height="80">
<rect x="0.5" width="80" height="80" fill="#D9D9D9"/>
</mask>
<g mask="url(#mask0_2002_167)">
<path d="M27.1666 23.3327C28.111 23.3327 28.9027 23.0132 29.5416 22.3743C30.1805 21.7355 30.4999 20.9438 30.4999 19.9993C30.4999 19.0549 30.1805 18.2632 29.5416 17.6243C28.9027 16.9855 28.111 16.666 27.1666 16.666C26.2221 16.666 25.4305 16.9855 24.7916 17.6243C24.1527 18.2632 23.8333 19.0549 23.8333 19.9993C23.8333 20.9438 24.1527 21.7355 24.7916 22.3743C25.4305 23.0132 26.2221 23.3327 27.1666 23.3327ZM37.1666 23.3327C38.111 23.3327 38.9027 23.0132 39.5416 22.3743C40.1805 21.7355 40.4999 20.9438 40.4999 19.9993C40.4999 19.0549 40.1805 18.2632 39.5416 17.6243C38.9027 16.9855 38.111 16.666 37.1666 16.666C36.2221 16.666 35.4305 16.9855 34.7916 17.6243C34.1527 18.2632 33.8333 19.0549 33.8333 19.9993C33.8333 20.9438 34.1527 21.7355 34.7916 22.3743C35.4305 23.0132 36.2221 23.3327 37.1666 23.3327ZM40.4999 59.9993C43.9999 59.9993 46.986 58.8049 49.4583 56.416C51.9305 54.0271 53.1666 51.1105 53.1666 47.666C53.1666 46.0549 52.8888 44.4855 52.3333 42.9577C51.7777 41.4299 50.9444 40.1105 49.8333 38.9993L40.4999 29.666L31.4999 38.666C30.2777 39.8882 29.3471 41.2771 28.7083 42.8327C28.0694 44.3882 27.7777 45.9993 27.8333 47.666C27.9444 51.1105 29.2221 54.0271 31.6666 56.416C34.111 58.8049 37.0555 59.9993 40.4999 59.9993ZM40.4999 53.666C38.8333 53.666 37.4166 53.0827 36.2499 51.916C35.0833 50.7493 34.4999 49.3327 34.4999 47.666C34.4999 46.8327 34.6527 46.041 34.9583 45.291C35.2638 44.541 35.7221 43.8605 36.3333 43.2493L40.4999 39.0827L44.5833 43.166C45.1944 43.7771 45.6666 44.4716 45.9999 45.2493C46.3333 46.0271 46.4999 46.8327 46.4999 47.666C46.4999 49.3327 45.9166 50.7493 44.7499 51.916C43.5833 53.0827 42.1666 53.666 40.4999 53.666ZM20.4999 73.3327C18.6666 73.3327 17.0971 72.6799 15.7916 71.3744C14.486 70.0688 13.8333 68.4993 13.8333 66.666V13.3327C13.8333 11.4993 14.486 9.9299 15.7916 8.62435C17.0971 7.31879 18.6666 6.66602 20.4999 6.66602H60.4999C62.3333 6.66602 63.9027 7.31879 65.2083 8.62435C66.5138 9.9299 67.1666 11.4993 67.1666 13.3327V66.666C67.1666 68.4993 66.5138 70.0688 65.2083 71.3744C63.9027 72.6799 62.3333 73.3327 60.4999 73.3327H20.4999ZM20.4999 66.666H60.4999V13.3327H20.4999V66.666Z" fill="#F40000"/>
</g>
</svg>
