<svg width="81" height="80" viewBox="0 0 81 80" fill="none" xmlns="http://www.w3.org/2000/svg">
<mask id="mask0_2002_233" style="mask-type:alpha" maskUnits="userSpaceOnUse" x="0" y="0" width="81" height="80">
<rect x="0.5" width="80" height="80" fill="#D9D9D9"/>
</mask>
<g mask="url(#mask0_2002_233)">
<path d="M53.8327 53.3327C56.6105 53.3327 58.9716 54.3049 60.9161 56.2494C62.8605 58.1938 63.8327 60.5549 63.8327 63.3327C63.8327 66.1105 62.8605 68.4716 60.9161 70.416C58.9716 72.3605 56.6105 73.3327 53.8327 73.3327C51.7216 73.3327 49.8188 72.7216 48.1244 71.4994C46.43 70.2771 45.2216 68.666 44.4994 66.666H23.3327L19.9994 71.8327C19.4994 72.6105 18.7911 73.0966 17.8744 73.291C16.9577 73.4855 16.1105 73.3327 15.3327 72.8327C14.5549 72.3327 14.0688 71.6244 13.8744 70.7077C13.6799 69.791 13.8327 68.9438 14.3327 68.166L27.4994 47.9994C23.4994 46.166 20.2216 43.3466 17.6661 39.541C15.1105 35.7355 13.8327 31.4438 13.8327 26.666H60.4994C60.4994 31.4438 59.2216 35.7355 56.6661 39.541C54.1105 43.3466 50.8327 46.166 46.8327 47.9994L48.7494 50.9994C47.5827 51.5549 46.6244 52.1105 45.8744 52.666C45.1244 53.2216 44.3049 53.9994 43.4161 54.9994L40.0827 49.8327C39.6383 49.9438 39.1661 49.9994 38.6661 49.9994H35.6661C35.1661 49.9994 34.6938 49.9438 34.2494 49.8327L27.6661 59.9994H44.4994C45.2216 57.9994 46.43 56.3882 48.1244 55.166C49.8188 53.9438 51.7216 53.3327 53.8327 53.3327ZM53.8327 66.666C54.7772 66.666 55.5688 66.3466 56.2077 65.7077C56.8466 65.0688 57.1661 64.2771 57.1661 63.3327C57.1661 62.3882 56.8466 61.5966 56.2077 60.9577C55.5688 60.3188 54.7772 59.9994 53.8327 59.9994C52.8883 59.9994 52.0966 60.3188 51.4577 60.9577C50.8188 61.5966 50.4994 62.3882 50.4994 63.3327C50.4994 64.2771 50.8188 65.0688 51.4577 65.7077C52.0966 66.3466 52.8883 66.666 53.8327 66.666ZM37.1661 43.3327C40.4994 43.3327 43.5411 42.416 46.2911 40.5827C49.0411 38.7494 51.1105 36.3327 52.4994 33.3327H21.8327C23.2772 36.3327 25.3605 38.7494 28.0827 40.5827C30.8049 42.416 33.8327 43.3327 37.1661 43.3327ZM28.4994 23.3327C28.7772 21.7216 28.7355 20.3605 28.3744 19.2493C28.0133 18.1382 27.2494 16.8605 26.0827 15.416C24.9716 13.9716 24.2355 12.5966 23.8744 11.291C23.5133 9.98546 23.4716 8.44379 23.7494 6.66602H27.0827C26.8049 8.27713 26.8466 9.62435 27.2077 10.7077C27.5688 11.791 28.3327 13.0549 29.4994 14.4993C30.6661 15.9438 31.4161 17.3188 31.7494 18.6243C32.0827 19.9299 32.1105 21.4993 31.8327 23.3327H28.4994ZM36.8327 23.3327C37.1105 21.7216 37.0827 20.3605 36.7494 19.2493C36.4161 18.1382 35.6661 16.8605 34.4994 15.416C33.3327 14.0271 32.5688 12.6799 32.2077 11.3743C31.8466 10.0688 31.8049 8.49935 32.0827 6.66602H35.4161C35.1383 8.27713 35.1799 9.62435 35.5411 10.7077C35.9022 11.791 36.6661 13.0549 37.8327 14.4993C38.9438 15.8882 39.6799 17.2355 40.0411 18.541C40.4022 19.8466 40.4438 21.4438 40.1661 23.3327H36.8327ZM45.1661 23.3327C45.4438 21.7216 45.4161 20.3605 45.0827 19.2493C44.7494 18.1382 43.9994 16.8605 42.8327 15.416C41.6661 14.0271 40.9022 12.6799 40.5411 11.3743C40.18 10.0688 40.1383 8.49935 40.4161 6.66602H43.7494C43.4716 8.27713 43.5133 9.62435 43.8744 10.7077C44.2355 11.791 44.9994 13.0549 46.1661 14.4993C47.2772 15.8882 48.0133 17.2355 48.3744 18.541C48.7355 19.8466 48.7772 21.4438 48.4994 23.3327H45.1661Z" fill="#F40000"/>
</g>
</svg>
